HIERARCHY
ROOT Hips
{
     OFFSET 17.96050 97.74250 -36.99900
     CHANNELS 6 Xposition Yposition Zposition Zrotation Xrotation Yrotation
     JOINT Spine
     {
          OFFSET 0.00000 11.89050 0.00000
          CHANNELS 3 Zrotation Xrotation Yrotation
          JOINT Spine1
          {
               OFFSET 0.00000 25.65740 0.12766
               CHANNELS 3 Zrotation Xrotation Yrotation
               JOINT HEad
               {
                    OFFSET 0.00000 8.73416 0.01134
                    CHANNELS 3 Zrotation Xrotation Yrotation
                    End Site
                    {
                         OFFSET -0.29000 12.77420 2.51395
                    }
               }
               JOINT LeftShoulder1
               {
                    OFFSET 8.99000 -0.36225 -0.22000
                    CHANNELS 3 Zrotation Xrotation Yrotation
                    JOINT LeftArm
                    {
                         OFFSET 10.28270 -0.00338 0.32212
                         CHANNELS 3 Zrotation Xrotation Yrotation
                         JOINT LeftForeArm
                         {
                              OFFSET 32.76690 0.09914 -1.42434
                              CHANNELS 3 Zrotation Xrotation Yrotation
                              JOINT LeftHand
                              {
                                   OFFSET 27.56430 0.08536 1.02216
                                   CHANNELS 3 Zrotation Xrotation Yrotation
                                   End Site
                                   {
                                        OFFSET 16.74430 -0.60000 1.50291
                                   }
                              }
                         }
                    }
               }
               JOINT RightShoulder
               {
                    OFFSET -8.99000 -0.36225 -0.22000
                    CHANNELS 3 Zrotation Xrotation Yrotation
                    JOINT RightArm
                    {
                         OFFSET -10.28270 -0.00338 0.32212
                         CHANNELS 3 Zrotation Xrotation Yrotation
                         JOINT RightForeArm
                         {
                              OFFSET -32.89710 0.09914 -1.42434
                              CHANNELS 3 Zrotation Xrotation Yrotation
                              JOINT RightHand
                              {
                                   OFFSET -27.49210 0.08536 1.02216
                                   CHANNELS 3 Zrotation Xrotation Yrotation
                                   End Site
                                   {
                                        OFFSET -16.63120 -0.60000 1.50291
                                   }
                              }
                         }
                    }
               }
          }
     }
     JOINT LeftUpLeg
     {
          OFFSET 8.94580 -8.66707 0.10165
          CHANNELS 3 Zrotation Xrotation Yrotation
          JOINT LeftLeg
          {
               OFFSET 0.00000 -44.42270 1.37270
               CHANNELS 3 Zrotation Xrotation Yrotation
               JOINT LeftFoot
               {
                    OFFSET -0.25355 -42.09240 -1.46059
                    CHANNELS 3 Zrotation Xrotation Yrotation
                    JOINT LeftToes
                    {
                         OFFSET -0.04000 -4.41509 8.49910
                         CHANNELS 3 Zrotation Xrotation Yrotation
                         End Site
                         {
                              OFFSET 0.08000 -0.04745 9.77979
                         }
                    }
               }
          }
     }
     JOINT RightUpLeg
     {
          OFFSET -8.94580 -8.66707 0.10165
          CHANNELS 3 Zrotation Xrotation Yrotation
          JOINT RightLeg
          {
               OFFSET 0.00000 -44.42270 1.37270
               CHANNELS 3 Zrotation Xrotation Yrotation
               JOINT RightFoot
               {
                    OFFSET 0.25355 -42.09240 -1.46059
                    CHANNELS 3 Zrotation Xrotation Yrotation
                    JOINT RightToes
                    {
                         OFFSET 0.04000 -4.41509 8.49910
                         CHANNELS 3 Zrotation Xrotation Yrotation
                         End Site
                         {
                              OFFSET -0.08000 -0.13745 9.77979
                         }
                    }
               }
          }
     }
}
MOTION
Frames: 21
Frame Time: 0.01667
2.98500 98.72120 42.75040 12.92470 -18.69030 108.81100 0.17857 8.89620 -0.29608 4.76990 17.68880 -1.50935 18.37380 3.09738 -55.01490 0.00000 0.00000 0.00000 -40.75020 -6.11863 -18.14610 -22.85630 23.10280 -71.96730 18.89730 7.82652 -8.72872 18.70100 0.11205 -1.92400 30.53540 -48.82600 39.94690 8.52776 14.27140 67.18300 -6.27873 9.20414 10.17110 41.04510 -16.19380 2.49842 -14.69880 21.03890 25.84560 0.21303 -1.27715 -0.01980 -1.14595 1.60293 -9.36960 -12.34040 -9.52155 -1.86988 16.44640 34.44390 -16.87810 36.30090 3.32330 -3.68871 17.27740 36.21720 -36.11690 
3.41168 97.40770 44.35150 12.71310 -15.85540 108.24500 -0.59383 8.76993 0.32782 3.18227 17.41070 -0.18099 16.82090 2.60321 -55.95610 0.00000 0.00000 0.00000 -40.53680 -5.62737 -15.78520 -22.18670 23.37220 -73.33140 18.00150 7.86864 -9.13378 17.81620 0.16666 -1.65833 34.98700 -49.47850 43.64320 9.36557 17.85100 70.03230 -5.68285 9.30060 9.67484 40.04120 -16.80330 3.00332 -16.26330 23.79400 26.94200 0.32985 -0.94300 -0.02929 -4.29245 -1.98459 -9.94469 -10.64160 -7.09611 -2.39581 13.45470 33.10570 -16.33380 34.17750 1.49664 -2.92160 14.38280 32.94030 -33.10700 
3.67937 96.22020 45.72690 12.60170 -13.42450 107.15700 -0.84244 8.63195 0.91833 1.82435 17.14670 1.17141 15.37350 2.05877 -56.90490 0.00000 0.00000 0.00000 -41.00420 -5.25663 -14.02930 -21.79290 23.39220 -74.60580 17.12300 7.90824 -9.58442 16.94240 0.23184 -1.31622 39.34500 -49.68340 47.35740 9.91130 21.22690 72.70610 -5.18183 9.38100 9.17086 39.24610 -16.81860 3.97610 -17.39220 25.99500 27.92150 0.67334 -0.39591 -0.05596 -7.31306 -5.58082 -10.13380 -9.49741 -5.63416 -3.55369 11.06970 33.13380 -16.76030 30.24980 -0.93432 -1.94613 9.25382 25.75560 -27.63790 
3.77553 95.21650 46.87350 12.64020 -11.47680 105.49900 -0.69917 8.53386 1.44802 0.76901 16.99150 2.46954 14.15760 1.47330 -57.76970 0.00000 0.00000 0.00000 -42.35010 -5.10282 -12.88060 -21.24980 23.30490 -75.88620 16.47780 7.96090 -9.77701 16.15520 0.30402 -0.91115 43.51560 -49.36920 51.05040 10.22810 24.18790 75.12780 -4.81116 9.44094 8.70448 38.68390 -16.26750 4.85553 -18.26160 27.59200 29.27310 1.25747 0.28222 -0.10454 -10.00750 -9.07972 -9.79039 -8.82781 -5.16787 -4.74785 9.10127 34.34040 -16.93480 24.97620 -3.83630 -0.99626 3.15224 13.84000 -21.87530 
3.70891 94.38910 47.82630 12.82620 -10.03950 103.32600 -0.44453 8.52859 1.88395 0.08616 17.01960 3.56076 13.27050 0.92884 -58.44650 0.00000 0.00000 0.00000 -44.68150 -5.16429 -12.29420 -20.26830 23.23570 -77.26600 16.33600 8.01546 -9.50939 15.56130 0.37403 -0.49871 47.30920 -48.45480 54.57690 10.44840 26.56120 77.17530 -4.59761 9.47736 8.33847 38.35590 -15.37960 5.24507 -19.07950 28.78510 31.28350 1.94562 0.90466 -0.16655 -11.97100 -12.10070 -8.80428 -8.51219 -5.59164 -5.55018 7.25256 36.27750 -15.92090 19.40040 -6.12570 -0.42545 -1.38105 2.25561 -18.61150 
3.51224 93.69490 48.64520 13.10600 -9.13694 100.79700 -0.27882 8.63171 2.15192 -0.20709 17.23860 4.25211 12.78900 0.53976 -58.81400 0.00000 0.00000 0.00000 -47.93260 -5.30385 -12.17440 -18.95750 23.24630 -78.71870 16.89060 8.04560 -8.82209 15.25620 0.43524 -0.13581 50.51820 -46.91320 57.70500 10.69490 28.26160 78.74740 -4.56430 9.48912 8.09566 38.31770 -14.49110 4.97867 -19.98760 29.89980 33.90860 2.45424 1.31448 -0.21580 -12.78140 -14.21260 -7.01154 -8.40176 -6.76568 -5.83370 5.44161 38.65990 -13.54880 15.00650 -7.06374 -0.24689 -4.15640 -5.78232 -17.18480 
3.23884 93.23290 49.32060 13.36190 -8.64546 98.01700 -0.28214 8.79850 2.21989 -0.15946 17.57240 4.39097 12.74340 0.39950 -58.75590 0.00000 0.00000 0.00000 -51.83500 -5.34086 -12.46420 -17.69120 23.39570 -80.08680 18.16660 8.02974 -7.95862 15.28060 0.48576 0.14479 53.06990 -44.84120 60.25020 11.02610 29.33670 79.81690 -4.72931 9.47623 7.95688 38.38420 -13.60740 3.97844 -20.94220 30.76840 36.82750 2.57179 1.66169 -0.23485 -12.27790 -15.16010 -4.36307 -8.53986 -8.38042 -5.71027 3.90338 41.03370 -10.09010 13.00730 -6.88398 -0.25571 -5.52984 -10.36220 -15.95100 
2.91791 93.06850 49.84190 13.46320 -8.47799 95.02790 -0.32980 8.96265 2.04533 0.10835 17.90470 3.96125 13.05010 0.57574 -58.19160 0.00000 0.00000 0.00000 -55.96660 -5.15906 -13.23490 -16.80090 23.78340 -81.18150 20.01280 7.96020 -7.18176 15.58820 0.52544 0.33380 55.07680 -42.46450 62.16930 11.44090 29.94850 80.44360 -5.12085 9.43657 7.90618 38.47650 -12.77170 2.32350 -21.84080 31.35720 39.50370 2.14615 2.23667 -0.21436 -10.75690 -15.01660 -1.13969 -8.96511 -10.27990 -5.49605 3.02732 43.11680 -6.09647 13.51410 -6.24710 -0.33090 -5.45981 -11.29990 -14.22810 
2.57081 93.16860 50.17850 13.29470 -8.49614 91.69050 -0.38425 9.07496 1.67195 0.42930 18.14160 3.12340 13.48240 1.07445 -57.06420 0.00000 0.00000 0.00000 -59.84850 -4.72962 -14.65890 -16.38880 24.47490 -81.91320 22.09200 7.86101 -6.57344 16.04260 0.55544 0.44845 56.75600 -40.06920 63.56620 11.88680 30.29840 80.76360 -5.76605 9.36713 7.93205 38.50300 -12.03190 0.33894 -22.53800 31.98900 41.27710 1.08427 3.24044 -0.13812 -8.90348 -14.22890 2.03282 -9.76780 -12.48620 -5.48120 2.96336 44.77990 -2.18410 15.77090 -5.46525 -0.46293 -4.10865 -8.39316 -12.28800 
2.22619 93.42370 50.35360 12.82320 -8.50005 87.76150 -0.57360 9.11307 1.21870 0.64813 18.24430 2.12347 13.73250 1.80199 -55.31660 0.00000 0.00000 0.00000 -63.06030 -4.13093 -16.89640 -16.32010 25.44080 -82.35810 23.92610 7.79905 -5.99868 16.47800 0.58109 0.53723 58.28140 -37.89970 64.66430 12.28740 30.52780 80.93020 -6.61364 9.27387 7.99585 38.32200 -11.28550 -1.43378 -22.82580 33.08460 41.39460 -0.64589 4.60268 0.02574 -7.42517 -13.31020 4.28334 -10.97430 -15.07930 -5.78397 3.44264 45.98580 1.13022 18.83000 -4.48427 -0.67971 -2.03734 -2.50092 -10.76960 
1.94320 93.67350 50.38240 12.14270 -8.33404 83.15300 -1.00982 9.06555 0.76826 0.68093 18.21200 1.14230 13.53740 2.63642 -52.94240 0.00000 0.00000 0.00000 -65.34540 -3.56033 -20.03200 -16.38370 26.60340 -82.67370 25.09150 7.84083 -5.30012 16.79440 0.61118 0.65890 59.68290 -36.11930 65.75680 12.62000 30.65350 81.01240 -7.44427 9.18194 8.05029 37.79740 -10.34310 -2.53360 -22.57260 34.94170 39.36490 -2.95684 5.80471 0.29616 -6.90519 -12.60600 4.49736 -12.50360 -17.99290 -6.39534 3.97221 46.66610 3.40009 21.86780 -3.18010 -1.01023 0.00744 4.04192 -10.06020 
1.79221 93.79430 50.26880 11.42040 -7.97884 78.04900 -1.61443 8.91821 0.32085 0.55630 18.03870 0.23279 12.79510 3.53700 -50.05340 0.00000 0.00000 0.00000 -66.65650 -3.21745 -24.09660 -16.53010 27.85720 -82.89210 25.44610 7.97576 -4.54106 16.97180 0.65219 0.84996 60.93270 -34.83690 67.12030 12.91840 30.59850 80.96610 -7.92354 9.12869 8.07847 36.87920 -8.93852 -2.90938 -21.74490 37.27270 35.34110 -5.50884 6.27090 0.61502 -7.86021 -12.48700 1.81853 -14.20180 -20.92470 -7.24167 4.22323 46.60640 4.10304 24.14420 -1.67596 -1.41405 1.41064 8.70700 -10.13510 
1.83252 93.71250 50.04580 10.75300 -7.57961 72.76140 -2.08663 8.67502 -0.15153 0.38234 17.70040 -0.63596 11.58660 4.56968 -46.84960 0.00000 0.00000 0.00000 -67.10250 -3.14514 -29.09220 -16.93460 28.98700 -82.83730 25.11240 8.11672 -4.01058 16.98510 0.70168 1.10316 62.08320 -34.06900 68.91400 13.14560 30.27060 80.72530 -7.86012 9.13516 8.08419 35.67150 -6.86643 -2.92305 -20.36370 39.32150 30.12930 -7.85744 5.77888 0.87003 -10.46120 -13.32100 -3.19541 -15.87470 -23.53820 -8.17778 4.24259 45.66660 2.70067 25.07800 -0.53560 -1.71012 1.98756 10.63700 -10.83090 
2.07249 93.47080 49.74520 10.17500 -7.17357 67.57720 -2.34496 8.34202 -0.66484 0.23474 17.17070 -1.51884 10.07320 5.80739 -43.51080 0.00000 0.00000 0.00000 -66.86250 -3.24614 -34.98350 -17.76260 29.67620 -82.30320 24.29450 8.19370 -3.93632 16.75490 0.74679 1.36939 63.21400 -33.63530 71.12990 13.11930 29.57240 80.26980 -7.41147 9.18338 8.08596 34.10570 -3.99641 -3.05477 -18.40050 40.10550 24.70180 -9.57187 4.58526 0.97970 -14.37820 -15.28360 -8.70074 -17.49260 -25.53720 -9.02384 4.21685 43.77820 -0.91426 24.54640 -0.40135 -1.70368 2.13590 11.16140 -12.09820 
2.49404 93.07260 49.44220 9.67695 -6.76815 62.67000 -2.39518 7.94264 -1.22556 0.13686 16.46030 -2.47291 8.38892 7.18453 -40.11300 0.00000 0.00000 0.00000 -66.14270 -3.45971 -41.68150 -18.90320 29.69010 -81.28620 23.22250 8.21008 -4.25615 16.19710 0.77418 1.60111 64.28240 -33.19510 73.64230 12.65360 28.36790 79.57170 -6.93990 9.23020 8.15880 32.15460 -0.43694 -3.62284 -15.92940 39.19810 19.82120 -10.47770 2.97576 0.94027 -19.26450 -18.64790 -13.08420 -18.99220 -26.91800 -9.66033 4.19792 41.36680 -5.99267 22.92000 -1.63939 -1.35449 2.69086 12.83730 -13.87870 
3.06930 92.47090 49.22800 9.21348 -6.36205 58.11020 -2.28506 7.50587 -1.84149 0.09101 15.61320 -3.55161 6.64513 8.46109 -36.63250 0.00000 0.00000 0.00000 -65.17540 -3.87079 -49.01940 -20.02090 29.02820 -79.99070 22.12540 8.20412 -4.73645 15.31370 0.78302 1.80149 65.14050 -32.46600 76.32720 11.75380 26.54350 78.55810 -6.69265 9.24492 8.39014 29.92360 3.53104 -4.63681 -13.19380 36.90760 15.95300 -10.58220 1.01626 0.78160 -24.83210 -23.70000 -15.57830 -20.26180 -27.96030 -10.02990 4.10737 39.21650 -11.22450 20.83490 -3.92614 -0.83615 4.08736 16.59460 -15.96460 
3.75130 91.63660 49.20080 8.69984 -5.96044 53.90080 -2.06882 7.04696 -2.51638 0.09543 14.66730 -4.77622 5.00428 9.36372 -33.03450 0.00000 0.00000 0.00000 -64.18360 -4.56751 -56.73530 -20.83820 27.85340 -78.63260 21.15040 8.19774 -5.21187 14.24420 0.78271 2.00367 65.67630 -31.38740 79.13490 10.59850 24.14050 77.20610 -6.68240 9.22625 8.77100 27.69640 7.54916 -5.85442 -10.60830 33.99220 13.42620 -10.01560 -1.33489 0.54751 -30.29000 -29.98400 -16.12400 -21.19700 -29.05750 -10.07230 3.96437 38.08240 -15.56080 18.84500 -6.44832 -0.36609 5.92938 21.02970 -17.91680 
4.47186 90.61020 49.47860 8.05427 -5.59407 49.98700 -1.76818 6.57335 -3.20214 0.14187 13.64810 -6.10091 3.66619 9.79168 -29.38840 0.00000 0.00000 0.00000 -63.23670 -5.36813 -64.50450 -21.26330 26.25880 -77.30910 20.37120 8.18914 -5.64551 13.25030 0.78085 2.20281 65.85660 -30.10190 82.02060 9.38387 21.39650 75.63270 -6.81668 9.18731 9.21629 25.83760 11.35940 -6.96802 -8.58106 31.11040 12.44280 -9.04313 -4.00458 0.29867 -34.49760 -36.10810 -15.24620 -21.71270 -30.49610 -9.72112 4.02979 38.37150 -18.60010 17.23040 -8.59152 -0.03544 7.62083 24.79860 -19.18970 
5.14724 89.50720 50.13210 7.27873 -5.31537 46.34890 -1.40840 6.10533 -3.84697 0.22546 12.61680 -7.45795 2.71973 9.84826 -25.85940 0.00000 0.00000 0.00000 -62.12480 -5.87427 -72.00080 -21.28790 24.12800 -76.03600 19.80690 8.16951 -6.06118 12.56470 0.78102 2.36260 65.76090 -28.81200 84.90310 8.24213 18.65380 74.04130 -7.02802 9.13888 9.64456 24.56890 14.90460 -7.71734 -7.22414 28.47330 12.80570 -7.97672 -6.68099 0.09333 -36.83720 -40.77150 -13.63230 -21.78200 -32.31090 -9.13085 4.63064 39.96140 -20.29660 15.84230 -10.20380 0.16936 8.77315 27.37380 -19.53900 
5.70571 88.47140 51.12390 6.42640 -5.19549 43.05900 -1.03111 5.69524 -4.48618 0.38184 11.70330 -8.86416 2.04851 9.66809 -22.53800 0.00000 0.00000 0.00000 -60.48310 -5.92288 -78.92980 -20.97340 21.24670 -74.78480 19.37810 8.13539 -6.51071 12.16620 0.78694 2.49984 65.65190 -27.58920 87.73810 7.21094 16.17720 72.60910 -7.24070 9.09293 9.99779 23.91360 18.19930 -7.99316 -6.33607 26.04280 13.90380 -7.05484 -8.88477 -0.03823 -37.46620 -43.69950 -11.65150 -21.42150 -34.34390 -8.84671 5.75127 42.33930 -20.56960 14.13330 -11.31280 0.26269 9.23639 28.61770 -19.09100 
6.12381 87.59560 52.37370 5.47226 -5.32429 40.14460 -0.61067 5.41683 -5.17659 0.69867 11.05490 -10.39500 1.45195 9.30520 -19.35520 0.00000 0.00000 0.00000 -58.07080 -5.78561 -85.06000 -20.56910 17.49560 -73.43900 18.92600 8.08041 -7.12596 11.81900 0.80258 2.69553 65.81760 -26.33820 90.50490 6.23491 14.03560 71.43150 -7.34062 9.06433 10.27670 23.83630 21.18010 -7.93210 -5.66481 23.94440 15.16300 -6.41262 -10.20320 -0.09802 -36.98950 -45.42590 -9.45159 -20.55260 -36.36660 -9.45402 6.82859 44.98020 -19.30290 11.76250 -11.89290 0.24221 9.02366 28.54260 -18.03550 
